HIERARCHY
ROOT Hips
{
 OFFSET 0.000000 0.000000 0.000000
 CHANNELS 6 Xposition Yposition Zposition Yrotation Xrotation Zrotation
 JOINT Chest
 {
  OFFSET 0.000000 9.857222 0.000240
  CHANNELS 3 Yrotation Xrotation Zrotation
  JOINT Chest2
  {
   OFFSET 0.000000 10.876940 -0.000436
   CHANNELS 3 Yrotation Xrotation Zrotation
   JOINT Chest3
   {
    OFFSET 0.000000 9.827798 0.000000
    CHANNELS 3 Yrotation Xrotation Zrotation
    JOINT Chest4
    {
     OFFSET 0.000000 9.827798 0.000000
     CHANNELS 3 Yrotation Xrotation Zrotation
     JOINT Neck
     {
      OFFSET 0.000000 13.831992 0.000000
      CHANNELS 3 Yrotation Xrotation Zrotation
      JOINT Head
      {
       OFFSET 0.000000 9.147643 -0.001036
       CHANNELS 3 Yrotation Xrotation Zrotation
       End Site
       {
        OFFSET 0.000000 17.515799 -0.000541
       }
      }
     }
     JOINT RightCollar
     {
      OFFSET -3.001579 7.717577 0.000000
      CHANNELS 3 Yrotation Xrotation Zrotation
      JOINT RightShoulder
      {
       OFFSET -14.002642 0.000000 0.000000
       CHANNELS 3 Yrotation Xrotation Zrotation
       JOINT RightElbow
       {
        OFFSET -30.053852 0.000000 0.000000
        CHANNELS 3 Yrotation Xrotation Zrotation
        JOINT RightWrist
        {
         OFFSET -24.564923 0.000000 -0.000000
         CHANNELS 3 Yrotation Xrotation Zrotation
         End Site
         {
          OFFSET -18.334355 0.000000 0.000000
         }
        }
       }
      }
     }
     JOINT LeftCollar
     {
      OFFSET 3.001579 7.717577 0.000000
      CHANNELS 3 Yrotation Xrotation Zrotation
      JOINT LeftShoulder
      {
       OFFSET 14.002642 0.000000 0.000000
       CHANNELS 3 Yrotation Xrotation Zrotation
       JOINT LeftElbow
       {
        OFFSET 30.053852 0.000000 0.000000
        CHANNELS 3 Yrotation Xrotation Zrotation
        JOINT LeftWrist
        {
         OFFSET 24.564923 0.000000 -0.000000
         CHANNELS 3 Yrotation Xrotation Zrotation
         End Site
         {
          OFFSET 18.334355 0.000000 0.000000
         }
        }
       }
      }
     }
    }
   }
  }
 }
 JOINT RightHip
 {
  OFFSET -8.003235 -0.001175 -0.000120
  CHANNELS 3 Yrotation Xrotation Zrotation
  JOINT RightKnee
  {
   OFFSET 0.000000 -41.759727 0.000113
   CHANNELS 3 Yrotation Xrotation Zrotation
   JOINT RightAnkle
   {
    OFFSET 0.000000 -40.728748 0.000159
    CHANNELS 3 Yrotation Xrotation Zrotation
    JOINT RightToe
    {
     OFFSET 0.000000 -6.515296 14.732841
     CHANNELS 3 Yrotation Xrotation Zrotation
     End Site
     {
      OFFSET 0.000000 -1.502839 6.412115
     }
    }
   }
  }
 }
 JOINT LeftHip
 {
  OFFSET 8.003235 -0.001175 -0.000120
  CHANNELS 3 Yrotation Xrotation Zrotation
  JOINT LeftKnee
  {
   OFFSET 0.000000 -41.759727 0.000113
   CHANNELS 3 Yrotation Xrotation Zrotation
   JOINT LeftAnkle
   {
    OFFSET 0.000000 -40.728748 0.000159
    CHANNELS 3 Yrotation Xrotation Zrotation
    JOINT LeftToe
    {
     OFFSET 0.000000 -6.515296 14.732841
     CHANNELS 3 Yrotation Xrotation Zrotation
     End Site
     {
      OFFSET 0.000000 -1.502839 6.412115
     }
    }
   }
  }
 }
}
MOTION
Frames: 7
Frame Time: 0.016667
21.683807 79.510771 -19.836207 -43.330564 20.602938 -3.764771 5.163191 0.969105 1.006399 2.179731 0.490270 0.624378 2.179731 0.490270 0.624378 1.634290 0.369936 0.466539 -0.794937 21.213633 -1.619640 -0.971659 3.209656 -2.706937 14.781667 25.372653 16.002026 79.359357 1.711982 43.287241 41.643237 16.690278 -1.450076 -9.915688 3.743877 -17.976801 -32.805256 29.981564 -17.151645 -55.411384 -5.809158 -39.859617 -42.944478 5.343567 20.440183 9.061330 9.144161 24.844061 -11.362057 -3.588905 -6.928627 -14.012246 10.046095 -12.903434 3.683255 -25.108193 16.083827 -0.288185 -1.147183 0.118941 -33.133710 -59.416177 41.942182 25.114077 44.527831 7.670615 -2.900785 0.781937 -6.124710 0.208960 0.839056 0.226285
21.697370 79.611069 -19.779325 -43.526513 20.692605 -3.851454 5.296419 0.835214 0.966603 2.193994 0.469148 0.618633 2.193994 0.469148 0.618633 1.645013 0.354088 0.462295 -0.773471 21.227132 -1.597746 -0.939290 3.234918 -2.673437 14.805504 25.438162 16.037613 79.405162 1.554574 43.213979 41.339791 16.830925 -1.150034 -9.925757 3.713756 -17.868564 -32.822759 29.994145 -17.173473 -55.535521 -5.930448 -39.745598 -42.513887 5.162842 20.126420 8.838868 9.134635 24.809168 -11.142311 -3.731459 -6.889270 -13.954820 10.079654 -12.907300 3.761731 -24.703370 15.911846 -0.250879 -1.336912 0.162235 -32.260043 -59.496095 41.236213 24.348337 44.172820 7.340170 -2.850099 0.577491 -6.147591 0.305290 0.968798 0.236880
21.701269 79.701977 -19.709060 -43.758397 20.674059 -3.934562 5.476387 0.815570 0.920095 2.202243 0.455761 0.610079 2.202243 0.455761 0.610079 1.651220 0.344025 0.455921 -0.743893 21.232854 -1.579248 -0.891102 3.245882 -2.648461 14.852251 25.504453 16.084908 79.559994 1.608256 43.116542 41.066716 16.834007 -1.017855 -9.960074 3.660946 -17.770690 -32.872816 30.054103 -17.205471 -55.683598 -6.066729 -39.642423 -42.130930 4.920915 19.959819 8.631219 9.188945 24.786047 -10.921917 -3.772772 -6.889562 -13.934188 10.087405 -12.912345 3.890675 -24.338707 15.745047 -0.192938 -1.468807 0.204168 -31.439740 -59.444611 40.558497 23.521931 43.943569 6.976720 -2.621530 0.334433 -6.213123 0.348619 1.044549 0.237602
21.700662 79.776693 -19.619059 -43.968246 20.631780 -3.976548 5.632320 0.842963 0.842766 2.212225 0.448093 0.598018 2.212225 0.448093 0.598018 1.658724 0.338240 0.446896 -0.712305 21.233984 -1.561648 -0.838937 3.248354 -2.625703 14.893479 25.551653 16.124621 79.843651 1.832179 43.040064 40.789897 16.668805 -1.100818 -9.995386 3.622279 -17.647598 -32.946595 30.159044 -17.235789 -55.865508 -6.162613 -39.487611 -41.761436 4.705758 19.864150 8.502855 9.232024 24.797299 -10.754604 -3.768292 -6.955247 -13.890417 10.074642 -12.893046 3.990546 -23.990692 15.641779 -0.184112 -1.571498 0.211784 -30.745484 -59.352073 39.967472 23.118600 43.744012 6.811254 -2.701404 0.132613 -6.266852 0.381092 1.051594 0.259860
21.711853 79.836779 -19.554159 -43.959904 20.662264 -3.981451 5.603570 0.803445 0.803291 2.214459 0.446619 0.585129 2.214459 0.446619 0.585129 1.660410 0.337090 0.437233 -0.681718 21.235138 -1.541657 -0.789282 3.250833 -2.598318 14.911080 25.591276 16.143331 80.194795 2.110777 43.006028 40.516529 16.418093 -1.299373 -10.017339 3.589057 -17.540885 -33.014456 30.274540 -17.254150 -56.058997 -6.200346 -39.290520 -41.396626 4.560738 19.785473 8.425098 9.211369 24.801112 -10.774471 -3.780868 -6.976360 -13.828283 10.043736 -12.873562 4.052177 -23.707375 15.582676 -0.199543 -1.623568 0.192535 -30.499788 -59.237427 39.612088 22.932747 43.411303 6.762649 -2.773610 0.172817 -6.358998 0.412360 0.967596 0.294504
21.719494 79.875973 -19.511411 -43.965501 20.693925 -4.020235 5.581817 0.766772 0.796121 2.218975 0.444444 0.574076 2.218975 0.444444 0.574076 1.663807 0.335423 0.428948 -0.652326 21.240327 -1.520976 -0.742054 3.260780 -2.569322 14.910386 25.629332 16.131440 80.562960 2.366279 43.022537 40.247466 16.132892 -1.560111 -10.035309 3.584556 -17.452780 -33.045804 30.349195 -17.258652 -56.319853 -6.111918 -39.133309 -41.093841 4.330164 19.816576 8.345095 9.208688 24.768323 -10.757277 -3.778911 -6.963851 -13.795841 9.999111 -12.841779 4.084905 -23.498595 15.544536 -0.215601 -1.602426 0.157052 -30.383255 -59.117859 39.382069 22.467524 43.135953 6.555384 -2.725271 0.245095 -6.502031 0.452704 0.857836 0.334861
21.756589 79.908911 -19.505143 -44.282888 20.811027 -4.142765 5.852380 0.644936 0.746134 2.227920 0.438481 0.564495 2.227920 0.438481 0.564495 1.670528 0.330924 0.421777 -0.629253 21.241896 -1.493836 -0.708103 3.263856 -2.526787 14.891636 25.647933 16.111512 80.849399 2.533161 43.054374 40.017070 15.910519 -1.794952 -10.056101 3.598839 -17.339934 -33.056624 30.375505 -17.239187 -56.607233 -5.972746 -39.040266 -40.840996 4.081138 19.891817 8.298138 9.224669 24.738676 -10.472142 -3.878766 -6.944958 -13.513308 9.865755 -12.745554 3.918668 -23.245172 15.490538 -0.204573 -1.531194 0.118733 -30.088608 -59.142027 39.274824 22.259066 42.923148 6.544045 -2.845634 0.285685 -6.655291 0.511554 0.765612 0.371622
